HIERARCHY
ROOT hip
{
	OFFSET 0.000000 0.000000 0.000000 
	CHANNELS 6 Xposition Yposition Zposition Xrotation Zrotation Yrotation
	JOINT abdomen
	{
		OFFSET 0.000000 3.402643 0.000000 
		CHANNELS 3 Xrotation Zrotation Yrotation
		JOINT chest
		{
			OFFSET 0.000000 8.438565 -0.680529 
			CHANNELS 3 Xrotation Zrotation Yrotation
			JOINT neck
			{
				OFFSET 0.000000 10.207942 -0.272212 
				CHANNELS 3 Xrotation Zrotation Yrotation
				JOINT head
				{
					OFFSET 0.000000 3.130431 0.000000 
					CHANNELS 3 Xrotation Zrotation Yrotation
					End Site
					{
						OFFSET 0.000000 3.130435 0.000000 
					}
				}
			}
			JOINT lCollar
			{
				OFFSET 3.470700 6.669187 -0.816635 
				CHANNELS 3 Yrotation Zrotation Xrotation
				JOINT lShldr
				{
					OFFSET 3.198488 0.000000 0.000000 
					CHANNELS 3 Zrotation Yrotation Xrotation
					JOINT lForeArm
					{
						OFFSET 10.139888 0.000000 0.000000 
						CHANNELS 3 Yrotation Zrotation Xrotation
						JOINT lHand
						{
							OFFSET 8.370511 0.000000 0.000000 
							CHANNELS 3 Zrotation Yrotation Xrotation
							End Site
							{
								OFFSET 4.083176 0.000000 0.000000 
							}
						}
					}
				}
			}
			JOINT rCollar
			{
				OFFSET -3.470700 6.669187 -0.816635 
				CHANNELS 3 Yrotation Zrotation Xrotation
				JOINT rShldr
				{
					OFFSET -3.198488 0.000000 0.000000 
					CHANNELS 3 Zrotation Yrotation Xrotation
					JOINT rForeArm
					{
						OFFSET -10.139888 0.000000 0.000000 
						CHANNELS 3 Yrotation Zrotation Xrotation
						JOINT rHand
						{
							OFFSET -8.370511 0.000000 0.000000 
							CHANNELS 3 Zrotation Yrotation Xrotation
							End Site
							{
								OFFSET -4.083176 0.000000 0.000000 
							}
						}
					}
				}
			}
		}
	}
	JOINT lThigh
	{
		OFFSET 5.308129 -1.633274 1.361059 
		CHANNELS 3 Xrotation Zrotation Yrotation
		JOINT lShin
		{
			OFFSET -2.041588 -20.007561 0.000000 
			CHANNELS 3 Xrotation Zrotation Yrotation
			JOINT lFoot
			{
				OFFSET 0.000000 -19.190928 -1.224953 
				CHANNELS 3 Xrotation Yrotation Zrotation
				End Site
				{
					OFFSET 0.000000 -2.449906 4.627600 
				}
			}
		}
	}
	JOINT rThigh
	{
		OFFSET -5.308129 -1.633274 1.361059 
		CHANNELS 3 Xrotation Zrotation Yrotation
		JOINT rShin
		{
			OFFSET 2.041588 -20.007561 0.000000 
			CHANNELS 3 Xrotation Zrotation Yrotation
			JOINT rFoot
			{
				OFFSET 0.000000 -19.190928 -1.224953 
				CHANNELS 3 Xrotation Yrotation Zrotation
				End Site
				{
					OFFSET 0.000000 -2.449906 4.627600 
				}
			}
		}
	}
}
MOTION
Frames: 20
Frame Time: 0.033333
-0.333903 50.105900 -0.248132 -0.404995 1.179127 -8.234083 0.000000 0.000000 0.000000 -1.465855 -0.748747 5.293409 11.023952 -0.067435 9.433599 27.003208 -3.940413 4.942771 0.876921 -2.190513 -0.820733 -62.469730 0.021712 -4.912617 -81.595993 -2.686540 -33.949112 -0.572970 15.151354 -3.739324 9.326549 13.306874 -1.141789 63.809334 16.769953 37.507664 80.976120 -8.365432 -2.424285 -3.651934 -20.402447 -3.220379 -4.527588 4.341584 4.663137 17.611778 -3.125744 23.690100 -10.467895 0.650785 -6.920627 -5.809567 -12.360436 -6.298760 15.178709 1.913138 -0.379552 -7.733972 -0.582733 8.424624 
-0.187030 50.076210 -0.531730 -0.289348 1.050440 -9.308105 0.000000 0.000000 0.000000 -1.029365 -0.834805 6.279908 10.850876 0.135128 8.750045 27.810888 -4.015937 3.504597 0.979881 -2.116952 -0.439449 -64.697174 -2.873917 -0.181232 -84.253906 -2.707966 -41.713829 8.231396 14.408442 -2.850174 10.625359 14.551022 -0.816038 64.882347 22.526089 42.417534 76.957085 -6.701906 -11.479033 -8.011374 -21.860329 -2.443393 -5.188928 4.456423 4.872222 18.273628 -3.309916 24.582764 -10.563035 0.659778 -6.874665 -6.599139 -12.249699 -5.940911 15.194548 1.826301 0.556389 -7.266882 -0.560099 8.359646 
-0.153294 50.041348 -0.769727 -0.556838 0.681601 -10.567160 0.000000 0.000000 0.000000 -0.464133 -0.891358 7.198061 11.135096 0.144851 8.564499 28.073875 -3.834204 2.515246 1.213165 -2.176495 0.058909 -66.098114 -4.895594 4.080020 -84.842453 -2.432198 -42.045540 9.211330 13.382439 -2.834266 11.813275 15.979047 -0.378837 65.481148 28.654108 47.503357 72.313271 -4.286602 -22.187717 -14.681232 -24.740246 -1.025073 -5.426372 4.762168 5.091080 19.086180 -3.282081 25.730789 -10.687569 0.684101 -7.146451 -6.931494 -11.694448 -5.315150 15.250875 1.532886 1.470984 -6.942889 -0.497810 8.337363 
-0.116873 50.020496 -0.966267 -0.723883 0.344607 -11.416218 0.000000 0.000000 0.000000 -0.014135 -0.812660 7.832763 11.296022 -0.019329 8.261718 28.236820 -3.436236 1.555210 1.384436 -2.147183 0.459262 -67.259499 -6.690860 8.382750 -84.495659 -2.073526 -39.828793 8.639204 13.624372 -2.864152 12.546097 15.988450 0.009163 67.425812 33.438770 49.963440 67.034103 -0.939264 -27.980478 -17.384583 -25.575241 -0.365510 -5.718162 5.005077 5.210616 19.690434 -3.203125 26.716389 -10.650868 0.689770 -7.316079 -6.980471 -11.353456 -5.007077 15.015894 1.503443 2.624830 -6.675817 -0.454253 8.243714 
-0.153305 50.031555 -1.135697 -1.033134 -0.009554 -11.953127 0.000000 0.000000 0.000000 0.524732 -0.869305 8.477506 11.524756 0.009676 7.763673 28.330404 -3.144398 0.527621 1.507957 -1.370986 0.976651 -68.726631 -9.038116 13.845728 -84.217896 -1.774613 -39.835747 11.338407 14.020773 -2.591735 13.134107 15.875472 0.503787 69.284973 36.347992 50.150925 62.740299 1.972044 -31.026510 -19.090248 -25.989491 0.050233 -5.638542 5.276514 5.350192 19.817692 -3.056995 27.493486 -10.382201 0.691250 -7.504908 -6.572217 -11.317671 -5.422938 14.595255 2.108820 4.013565 -6.385823 -0.406748 7.671296 
-0.255549 50.015800 -1.451021 0.265929 -0.752910 -12.598861 0.000000 0.000000 0.000000 -0.035312 -0.347258 8.974739 11.099118 0.193719 7.324276 28.794937 -2.978408 -0.489144 1.508968 -0.612677 0.468666 -69.402374 -10.887262 18.930943 -84.087166 -1.354149 -39.344826 11.487085 15.689332 -2.420995 13.900517 15.428123 -0.090040 70.939178 37.443943 49.987804 59.922539 3.739112 -33.770523 -21.007742 -26.633448 0.564298 -7.545862 6.588673 5.668084 20.933094 -3.088094 27.450788 -10.550207 0.713538 -7.724540 -7.635121 -10.700068 -5.734633 13.904178 3.388140 4.757797 -5.664144 -0.310186 6.718479 
-0.413638 49.996212 -1.726743 1.127346 -1.465824 -12.924365 0.000000 0.000000 0.000000 -0.235921 -0.009642 9.111328 10.765665 0.358759 6.836109 28.792267 -2.479923 -1.202582 1.260908 -0.228146 0.283171 -69.243813 -12.549859 22.833818 -83.661308 -1.075236 -37.584003 11.778141 17.950575 -2.181642 14.167531 15.568533 -0.354642 70.710487 37.532768 49.284683 59.488960 4.157795 -37.309826 -27.077305 -25.922682 1.698979 -8.924954 7.831151 5.972366 21.918425 -3.048680 27.155409 -10.636994 0.751262 -7.978268 -8.095616 -10.361026 -6.481050 13.293050 4.841545 5.548621 -5.053128 -0.243611 5.683733 
-0.601614 50.008789 -1.859603 0.435857 -1.533286 -12.787955 0.000000 0.000000 0.000000 0.506384 -0.270423 8.515714 11.153108 -0.087428 5.878900 28.670944 -2.167202 -1.524563 0.903390 -0.873705 0.957101 -68.693092 -13.718480 24.127600 -82.904327 -1.246139 -38.010872 11.497288 18.183882 -2.194591 13.563312 14.622649 0.431201 70.880211 37.085949 47.770912 59.375866 3.889971 -36.299698 -29.746965 -24.805355 1.990039 -8.320448 7.812622 5.873285 21.635429 -2.791840 27.338860 -10.122042 0.726826 -8.163174 -6.923214 -11.033452 -7.504238 12.872447 5.466162 7.052433 -4.986516 -0.213371 5.451416 
-0.879394 50.016987 -2.023437 0.834733 -1.924264 -12.722310 0.000000 0.000000 0.000000 0.465634 -0.232123 7.949272 10.839117 -0.116717 5.136728 29.007065 -1.630031 -1.827099 0.552694 -0.928398 0.957179 -68.573914 -14.451787 23.570986 -81.640320 -1.878615 -40.848366 7.401896 17.077911 -2.804985 12.866606 14.387569 0.450802 69.336128 35.842579 45.522812 61.028000 2.976290 -36.617634 -26.039598 -25.446459 1.376006 -8.873200 8.686909 6.099267 21.832325 -2.708192 27.068068 -9.840733 0.729286 -8.414852 -6.159142 -11.075967 -7.929731 11.217561 5.730921 6.318262 -4.191379 -0.200281 5.962652 
-1.195491 50.035484 -2.184982 0.902702 -2.133585 -12.753335 0.000000 0.000000 0.000000 0.563926 -0.329422 7.187603 11.001525 -0.301792 4.521524 28.981146 -1.142016 -1.797297 0.115233 -1.541168 1.016044 -67.480492 -14.778630 22.525152 -80.963875 -2.179040 -41.694000 5.412590 17.033253 -3.039562 12.099326 14.431676 0.551794 66.445213 34.710747 43.509094 62.658257 2.236845 -38.291832 -24.296963 -26.762758 1.305578 -8.865778 9.343865 6.268764 21.616816 -2.609988 26.582397 -9.488161 0.726317 -8.645616 -4.999102 -11.481217 -8.555186 9.185996 5.572165 4.144075 -2.892180 -0.163837 7.060771 
-1.492750 50.063019 -2.347214 0.459739 -2.086523 -12.684660 0.000000 0.000000 0.000000 1.030724 -0.640408 6.484733 11.379329 -0.263113 3.730474 29.037920 -1.044368 -1.865636 0.065913 -1.825087 1.455895 -66.662117 -15.839140 21.723581 -79.939804 -2.366413 -40.620750 6.889476 17.569439 -2.833478 11.303408 15.242409 0.990266 61.316433 33.556866 39.389927 63.709183 1.602578 -36.561932 -22.469389 -26.368597 0.833084 -8.346519 9.448760 6.176665 20.942522 -2.336195 26.889139 -8.669452 0.675497 -8.919171 -4.169350 -12.562757 -9.316916 8.737276 4.998267 1.841339 -1.360339 -0.062261 8.650146 
-1.918378 50.066402 -2.490407 0.450118 -1.968499 -13.152738 0.000000 0.000000 0.000000 1.042668 -0.815345 6.309203 11.520209 -0.555690 3.349736 29.095957 -0.634323 -2.138865 0.294996 -2.366279 1.466402 -65.642693 -16.748301 19.887691 -78.576080 -2.749577 -40.627262 8.142179 16.973530 -2.713726 11.155993 15.681399 1.002505 55.288628 31.663754 33.225025 64.061256 1.529284 -35.527519 -19.201483 -26.398485 0.126742 -8.022790 9.953938 6.601165 20.521769 -2.501622 26.994188 -8.223893 0.657010 -9.195700 -5.156016 -13.718189 -9.349854 10.508727 4.019762 -0.569958 0.280527 0.022921 10.564915 
-2.368747 50.051270 -2.685985 0.750902 -1.906378 -13.787112 0.000000 0.000000 0.000000 0.847730 -0.698559 6.533668 11.596489 -0.643614 3.056777 28.933905 -0.585285 -2.705236 0.227612 -2.300149 1.290367 -64.907852 -17.720692 17.148348 -76.730827 -3.366145 -42.411888 9.033858 16.027512 -2.665437 11.358222 15.815482 0.822842 48.389614 29.123482 26.258442 63.501888 1.999891 -36.150032 -9.707928 -27.493814 -1.772039 -8.074588 10.837044 7.078260 20.276192 -2.705686 26.515915 -7.844613 0.669194 -9.576984 -5.185449 -14.666013 -9.409679 9.494849 3.170910 -2.299071 2.831127 0.293741 12.441279 
-2.907534 49.998657 -2.897277 1.010905 -1.655319 -14.400808 0.000000 0.000000 0.000000 0.700126 -0.688597 6.719201 11.385102 -0.848635 2.744418 29.192430 -0.224248 -3.252005 0.234834 -2.446944 1.153787 -63.724854 -18.449085 13.727676 -75.243690 -3.679657 -43.523663 8.516160 15.783944 -2.740332 11.450965 15.879011 0.694971 41.271793 26.457216 19.489826 61.767929 2.963034 -35.964291 0.527052 -27.178766 -3.950832 -8.045526 11.637981 7.547733 20.140455 -2.950424 25.575560 -7.665483 0.694495 -10.096084 -4.267405 -15.726909 -9.796716 6.456865 2.525665 -2.994086 5.462735 0.661746 13.798969 
-3.495789 49.947926 -2.992337 0.765799 -1.105877 -14.563430 0.000000 0.000000 0.000000 0.741241 -0.863530 6.514400 11.267477 -1.258738 2.314967 29.971689 1.052534 -3.662567 0.239671 -2.642136 1.173322 -61.581451 -19.564339 10.958772 -73.351700 -3.863023 -43.283989 7.365372 15.543959 -2.880380 11.240456 15.413490 0.771890 35.421494 23.686367 13.961322 58.777321 3.999478 -34.160645 7.611123 -24.524067 -5.273081 -7.390778 11.841456 7.767398 19.543356 -3.066790 24.815779 -7.267398 0.701906 -10.541293 -3.076556 -17.265871 -10.667504 4.149076 2.076717 -2.469347 7.247679 0.902992 14.800745 
-4.250640 49.884335 -3.131991 0.708120 -0.727413 -14.679004 0.000000 0.000000 0.000000 0.724375 -0.941350 6.406986 11.452632 -1.142137 1.592065 28.902040 0.058442 -4.121091 0.160913 -2.633997 1.163571 -59.009216 -20.995907 8.247346 -71.288979 -4.166165 -44.099899 8.375992 14.802412 -2.817216 11.077235 15.022612 0.781607 30.163380 21.129622 8.823141 54.752472 5.045432 -32.770863 12.135935 -23.622400 -6.014307 -6.921936 12.407180 8.024364 18.849249 -3.017135 24.431705 -6.562375 0.670515 -11.270530 -2.022409 -18.361843 -11.113766 2.006452 1.742135 -0.569039 8.365075 1.209772 16.694138 
-5.154607 49.775043 -3.356673 1.023987 -0.368496 -14.638992 0.000000 0.000000 0.000000 0.492043 -0.931752 6.348401 10.992669 -1.523086 1.230813 30.066729 1.936938 -4.660817 -0.151314 -2.688383 0.938754 -56.654617 -22.182899 4.464810 -68.216110 -4.454955 -43.738567 7.249011 15.015904 -2.920993 10.853126 14.247510 0.621546 26.207125 18.644524 4.461823 49.745384 6.041417 -32.348156 13.278790 -22.889904 -6.115317 -7.000306 13.315986 8.331735 18.355406 -2.967745 23.858307 -5.742091 0.606478 -12.144041 -2.373348 -19.105539 -10.671343 1.917667 1.186123 1.380333 7.592701 1.229759 17.836241 
-6.202244 49.620991 -3.511709 1.099334 0.094734 -14.052747 0.000000 0.000000 0.000000 0.360648 -1.039316 5.938468 11.117955 -1.054677 -0.254043 28.615358 -0.126400 -5.351593 -0.753571 -2.715740 0.791906 -54.183487 -23.260359 0.441084 -65.080177 -4.867941 -45.974701 7.587990 14.922009 -2.887316 10.301640 13.913244 0.534044 22.397587 16.567913 0.290923 43.932568 6.965785 -30.714401 14.541039 -21.555161 -6.153084 -6.950356 14.191229 8.556369 17.737085 -2.848770 23.331337 -4.675516 0.550008 -13.126075 -1.855997 -19.594994 -10.435040 1.467763 0.689214 2.924600 5.535327 0.930276 18.658249 
-7.457371 49.455708 -3.662021 1.262403 0.361168 -13.281473 0.000000 0.000000 0.000000 0.149120 -0.963031 5.059190 10.796572 -1.337656 -1.074610 28.369839 0.398549 -5.498117 -1.370891 -3.461465 0.587055 -50.569172 -23.762743 -3.976192 -62.177212 -5.003725 -46.650410 7.058022 15.227750 -2.930639 9.698153 13.308108 0.334196 19.764448 15.563657 -3.580153 37.843472 7.777072 -28.856432 12.507654 -21.341860 -5.771630 -6.728405 15.507323 9.034991 16.539066 -2.704396 22.415382 -3.180227 0.403446 -14.107565 -0.772151 -19.354301 -10.695496 0.376823 0.958032 2.315860 2.586046 0.430810 18.140848 
-8.892584 49.236897 -3.859641 1.406178 0.342756 -12.851797 0.000000 0.000000 0.000000 0.076020 -0.759297 4.570687 10.535721 -1.347130 -1.602038 28.138435 0.651091 -5.674126 -1.911947 -3.843893 0.470050 -46.695911 -23.939581 -7.483214 -59.324940 -5.066573 -47.260860 7.758908 14.307435 -2.911485 9.273656 12.811315 0.236364 17.924065 14.809327 -8.235970 32.441284 7.961842 -27.272903 11.484211 -23.180655 -5.835444 -6.210385 17.174267 9.695939 15.226515 -2.431272 21.518421 -1.641428 0.250644 -15.411017 -1.699469 -18.592089 -10.534690 2.605909 1.726345 0.048631 0.942146 0.128848 16.338799 
